<svg width="251" height="55" viewBox="0 0 251 55" fill="none" xmlns="http://www.w3.org/2000/svg">
<path d="M18.8752 33.0614C18.7468 33.2209 18.6295 33.3645 18.5178 33.5081C17.8309 34.3856 17.7974 34.5877 18.7077 35.2153C19.3611 35.6674 19.4672 36.2311 19.5453 36.9066C19.6682 37.9384 19.8636 38.9595 20.0591 39.9806C20.221 40.8103 20.7572 41.2677 21.6618 41.3155C24.7891 41.4857 27.9107 41.6612 31.0324 41.8421C31.7025 41.8793 32.367 41.9378 33.0316 42.0176C33.5342 42.0761 33.819 42.4005 33.9083 42.8473C34.1931 44.3417 34.45 45.8362 34.7181 47.3307C34.8744 48.2242 34.517 48.8571 33.7017 49.3358C31.0938 50.8728 28.2905 51.979 25.3754 52.8353C21.8796 53.8671 18.2833 54.4787 14.6758 54.9893C14.4524 55.0212 14.1676 54.9467 13.9777 54.8244C6.56729 49.9633 1.95461 43.3419 0.474749 34.8749C-1.08887 25.9027 1.21747 17.824 7.28209 10.8037C11.8836 5.47989 17.7863 2.03356 24.9008 0.677353C34.88 -1.22665 43.8932 0.874139 51.7224 7.09672C57.3571 11.5748 60.9143 17.3241 62.2546 24.1955C64.0918 33.5879 61.7799 42.0069 55.3355 49.3624C54.5537 50.2505 53.6881 51.0696 52.7835 51.995C51.4767 51.1015 50.1979 50.2665 48.9638 49.3783C43.8764 45.7033 39.4648 41.4219 36.0304 36.2684C34.0591 33.3166 32.6295 30.1149 31.306 26.876C29.318 22.0203 27.4193 17.1326 25.4592 12.2662C25.1856 11.5801 24.8281 10.91 24.3982 10.2984C23.6443 9.21875 22.2984 9.18687 21.4217 10.1921C20.5394 11.1972 20.1931 12.4311 20.0647 13.6863C19.8637 15.6754 19.8022 17.6804 19.6626 19.6748C19.5733 20.9087 19.4728 22.1479 19.3164 23.3765C19.1489 24.6688 18.367 25.6155 17.2669 26.3388C16.9207 26.5675 16.5689 26.7909 16.2562 27.0515C15.8317 27.4025 15.8988 27.7748 16.4349 27.9503C16.9263 28.1099 17.468 28.1365 17.9538 28.3067C18.1939 28.3918 18.4843 28.647 18.5346 28.8704C18.6463 29.3278 18.6518 29.8224 18.6183 30.2958C18.6072 30.4979 18.4173 30.7212 18.2498 30.8702C17.6634 31.3754 17.6243 31.5828 18.0934 32.1838C18.2163 32.3433 18.3559 32.4976 18.4899 32.6518C18.6128 32.7901 18.7412 32.9231 18.8752 33.0614ZM38.7891 22.0203C38.6048 22.2117 38.4819 22.3447 38.3591 22.4723C37.3874 23.4456 37.3148 24.7274 38.1971 25.5836C39.152 26.5197 40.4923 26.5037 41.5645 25.5464C41.7097 25.4134 41.866 25.2911 42.0782 25.1103C42.1844 27.0249 42.7595 27.8493 44.0551 28.0248C44.8928 28.1365 45.669 27.9131 46.099 27.227C46.4731 26.6313 46.6183 25.9027 46.8529 25.2592C48.2546 26.4292 49.3212 26.6207 50.3208 25.7485C50.6837 25.4347 50.9686 24.9507 51.0914 24.4986C51.3762 23.4722 50.734 22.7223 49.941 22.0415C52.2027 21.7011 52.9678 21.1534 53.0236 19.9248C53.0571 19.1696 52.8114 18.4728 52.1413 18.1112C51.5214 17.7761 50.7675 17.6698 50.103 17.4677C51.3204 16.037 51.5214 14.9308 50.5665 14.0692C50.1812 13.7235 49.6171 13.4576 49.0922 13.3618C48.1038 13.1757 47.4169 13.8139 46.7635 14.4574C46.3335 12.3141 45.87 11.6493 44.6359 11.6014C42.6199 11.5216 42.0392 12.7502 42.0838 14.4681C40.4309 13.165 39.4368 12.9576 38.4372 13.8352C36.9518 15.1382 37.5047 16.4146 38.817 17.5953C36.6782 17.723 35.74 18.3931 35.7121 19.7333C35.673 21.1055 36.5274 21.7597 38.7891 22.0203Z" fill="white"/>
<path d="M20.5283 23.3283C22.6671 23.5782 24.7445 23.6314 26.727 22.4561C26.4254 23.8069 25.1298 24.7111 23.6109 24.8121C22.3041 24.8972 20.8913 24.2696 20.5283 23.3283Z" fill="white"/>
<path d="M44.3624 22.1903C42.9552 22.185 41.8662 21.1373 41.8662 19.7864C41.8718 18.4515 42.9998 17.3771 44.3792 17.3878C45.7585 17.3984 46.8866 18.4834 46.8977 19.8077C46.9145 21.1054 45.7529 22.1903 44.3624 22.1903Z" fill="white"/>
<path d="M90.6174 36.2151C88.0654 36.2151 86.0829 35.6301 84.6757 34.4601C83.2684 33.29 82.5592 31.5987 82.5592 29.3916V18.292H85.6976V29.2799C85.6976 30.7584 86.122 31.8647 86.9764 32.5986C87.8308 33.3272 89.0426 33.6942 90.6174 33.6942C92.1699 33.6942 93.3761 33.3272 94.2305 32.5986C95.0849 31.87 95.5093 30.7637 95.5093 29.2799V18.292H98.6142V29.3916C98.6142 31.604 97.9162 33.29 96.5145 34.4601C95.1128 35.6301 93.1472 36.2151 90.6174 36.2151Z" fill="white"/>
<path d="M102.093 35.9386V18.292H110.609C112.681 18.292 114.194 18.7972 115.144 19.8131C116.093 20.8289 116.568 22.201 116.568 23.9349C116.568 25.1794 116.244 26.2378 115.591 27.1153C114.937 27.9928 113.999 28.6044 112.77 28.9501C113.117 29.1895 113.385 29.4448 113.575 29.716C113.764 29.9872 113.96 30.3542 114.15 30.8116L116.478 35.9386H113.256L110.983 31.0031C110.771 30.5297 110.52 30.1893 110.218 29.9872C109.922 29.7851 109.42 29.6841 108.705 29.6841H105.226V35.9333H102.093V35.9386ZM105.232 27.2802H109.777C110.911 27.2802 111.799 27.0142 112.452 26.4877C113.106 25.9559 113.429 25.1102 113.429 23.9402C113.429 21.7277 112.307 20.6215 110.062 20.6215H105.226V27.2802H105.232Z" fill="white"/>
<path d="M119.645 35.9386V18.292H128.625C130.468 18.292 131.83 18.7015 132.712 19.5259C133.595 20.3502 134.036 21.5096 134.036 23.0041C134.036 23.9561 133.835 24.7539 133.433 25.4027C133.031 26.0516 132.495 26.5409 131.819 26.8706C132.718 27.11 133.433 27.5354 133.963 28.147C134.488 28.7587 134.756 29.6575 134.756 30.8488C134.756 32.5667 134.27 33.8431 133.304 34.6834C132.338 35.5237 130.909 35.9439 129.032 35.9439H119.645V35.9386ZM122.783 25.8282H128.195C129.25 25.8282 130.004 25.5942 130.451 25.1315C130.903 24.6635 131.126 24.0412 131.126 23.2541C131.126 22.3393 130.898 21.6586 130.434 21.2118C129.976 20.7651 129.111 20.5417 127.843 20.5417H122.778V25.8282H122.783ZM122.783 33.7474H128.368C129.479 33.7474 130.294 33.524 130.814 33.0773C131.333 32.6305 131.59 31.8487 131.59 30.7318C131.59 29.8171 131.333 29.1363 130.825 28.6895C130.317 28.2428 129.39 28.0194 128.049 28.0194H122.783V33.7474Z" fill="white"/>
<path d="M136.253 35.9386L143.334 18.292H146.846L153.866 35.9386H150.644L148.801 31.3913H141.346L139.503 35.9386H136.253ZM141.831 29.0884H148.276L145.054 21.0044L141.831 29.0884Z" fill="white"/>
<path d="M156.938 35.9386V18.292H159.702L169.368 31.2796V18.292H172.473V35.9386H169.709L160.07 22.9775V35.9386H156.938Z" fill="white"/>
<path d="M191.438 36.2149C188.388 36.2149 186.082 35.4224 184.519 33.8322C182.955 32.242 182.173 30.0987 182.173 27.3916C182.173 25.4557 182.503 23.7857 183.167 22.3923C183.832 20.9935 184.842 19.9192 186.205 19.1587C187.568 18.4034 189.304 18.0205 191.415 18.0205C192.487 18.0205 193.47 18.1003 194.364 18.2545C195.257 18.4088 196.084 18.6162 196.854 18.8715V21.4775C196.089 21.185 195.268 20.9616 194.392 20.8074C193.521 20.6531 192.605 20.5734 191.644 20.5734C189.343 20.5734 187.718 21.1584 186.769 22.3285C185.82 23.4985 185.345 25.1898 185.345 27.3969C185.345 29.4605 185.864 31.0294 186.897 32.0984C187.931 33.1674 189.533 33.6993 191.7 33.6993C192.582 33.6993 193.47 33.6301 194.364 33.4919C195.257 33.3536 196.095 33.1408 196.882 32.8483V35.4756C196.117 35.715 195.285 35.8958 194.392 36.0235C193.498 36.1511 192.515 36.2149 191.438 36.2149Z" fill="white"/>
<path d="M198.228 35.9386L205.303 18.292H208.816L215.835 35.9386H212.619L210.776 31.3913H203.326L201.484 35.9386H198.228ZM203.812 29.0884H210.257L207.034 21.0044L203.812 29.0884Z" fill="white"/>
<path d="M218.918 35.9386V18.292H227.434C229.506 18.292 231.019 18.7972 231.969 19.8131C232.918 20.8289 233.393 22.201 233.393 23.9349C233.393 25.1794 233.069 26.2378 232.416 27.1153C231.762 27.9928 230.824 28.6044 229.595 28.9501C229.942 29.1895 230.21 29.4448 230.4 29.716C230.589 29.9872 230.785 30.3542 230.975 30.8116L233.303 35.9386H230.081L227.808 31.0031C227.596 30.5297 227.345 30.1893 227.043 29.9872C226.747 29.7851 226.239 29.6841 225.53 29.6841H222.045V35.9333H218.918V35.9386ZM222.057 27.2802H226.602C227.736 27.2802 228.624 27.0142 229.277 26.4877C229.931 25.9559 230.254 25.1102 230.254 23.9402C230.254 21.7277 229.132 20.6215 226.887 20.6215H222.051V27.2802H222.057Z" fill="white"/>
<path d="M241.272 35.9386V20.6215H235.347V18.292H250.308V20.6215H244.411V35.9386H241.272Z" fill="white"/>
</svg>
